HIERARCHY
ROOT Hips
{
    OFFSET   0.000000   0.000000   0.000000
    CHANNELS 6 Xposition Yposition Zposition Zrotation Xrotation Yrotation
    JOINT Chest
    {
        OFFSET   0.000000   8.007230   0.000000
        CHANNELS 3 Zrotation Xrotation Yrotation
        JOINT Chest2
        {
            OFFSET   0.000000  22.077100   0.000000
            CHANNELS 3 Zrotation Xrotation Yrotation
            JOINT Neck
            {
                OFFSET   0.000000  23.254800  -0.000021
                CHANNELS 3 Zrotation Xrotation Yrotation
                JOINT Head
                {
                    OFFSET   0.000000  14.370000   1.956610
                    CHANNELS 3 Zrotation Xrotation Yrotation
                    End Site
                    {
                        OFFSET   0.000000  19.566000   0.000000
                    }
                }
            }
            JOINT LeftCollar
            {
                OFFSET   3.911900  19.017000  -0.467063
                CHANNELS 3 Zrotation Xrotation Yrotation
                JOINT LeftShoulder
                {
                    OFFSET  10.383700   0.000000   0.000000
                    CHANNELS 3 Zrotation Xrotation Yrotation
                    JOINT LeftElbow
                    {
                        OFFSET  26.662100   0.001529   0.000325
                        CHANNELS 3 Zrotation Xrotation Yrotation
                        JOINT LeftWrist
                        {
                            OFFSET  28.869000  -0.000011  -0.000096
                            CHANNELS 3 Zrotation Xrotation Yrotation
                            JOINT LeftFinger0
                            {
                                OFFSET   2.044650  -2.323460   3.252850
                                CHANNELS 3 Zrotation Xrotation Yrotation
                                JOINT LeftFinger01
                                {
                                    OFFSET   3.088130   0.000000   0.000000
                                    CHANNELS 3 Zrotation Xrotation Yrotation
                                    JOINT LeftFinger02
                                    {
                                        OFFSET   2.639460   0.000000   0.000000
                                        CHANNELS 3 Zrotation Xrotation Yrotation
                                        End Site
                                        {
                                            OFFSET   2.582190   0.000000   0.000000
                                        }
                                    }
                                }
                            }
                            JOINT LeftFinger1
                            {
                                OFFSET   8.364480   0.000000   3.252850
                                CHANNELS 3 Zrotation Xrotation Yrotation
                                JOINT LeftFinger11
                                {
                                    OFFSET   4.646930   0.000000   0.000000
                                    CHANNELS 3 Zrotation Xrotation Yrotation
                                    JOINT LeftFinger12
                                    {
                                        OFFSET   2.323460   0.000000   0.000000
                                        CHANNELS 3 Zrotation Xrotation Yrotation
                                        End Site
                                        {
                                            OFFSET   2.273050   0.000000   0.000000
                                        }
                                    }
                                }
                            }
                            JOINT LeftFinger2
                            {
                                OFFSET   8.364480   0.000016   1.078090
                                CHANNELS 3 Zrotation Xrotation Yrotation
                                JOINT LeftFinger21
                                {
                                    OFFSET   5.111620   0.000000   0.000000
                                    CHANNELS 3 Zrotation Xrotation Yrotation
                                    JOINT LeftFinger22
                                    {
                                        OFFSET   2.788160   0.000017   0.000000
                                        CHANNELS 3 Zrotation Xrotation Yrotation
                                        End Site
                                        {
                                            OFFSET   2.727660   0.000000   0.000000
                                        }
                                    }
                                }
                            }
                            JOINT LeftFinger3
                            {
                                OFFSET   7.899780   0.000015  -1.078090
                                CHANNELS 3 Zrotation Xrotation Yrotation
                                JOINT LeftFinger31
                                {
                                    OFFSET   4.646920   0.000000   0.000000
                                    CHANNELS 3 Zrotation Xrotation Yrotation
                                    JOINT LeftFinger32
                                    {
                                        OFFSET   2.323470   0.000000   0.000000
                                        CHANNELS 3 Zrotation Xrotation Yrotation
                                        End Site
                                        {
                                            OFFSET   2.273050   0.000000   0.000000
                                        }
                                    }
                                }
                            }
                            JOINT LeftFinger4
                            {
                                OFFSET   7.435090   0.000000  -3.252850
                                CHANNELS 3 Zrotation Xrotation Yrotation
                                JOINT LeftFinger41
                                {
                                    OFFSET   3.717550   0.000000   0.000000
                                    CHANNELS 3 Zrotation Xrotation Yrotation
                                    JOINT LeftFinger42
                                    {
                                        OFFSET   1.858760   0.000000   0.000000
                                        CHANNELS 3 Zrotation Xrotation Yrotation
                                        End Site
                                        {
                                            OFFSET   1.818440   0.000000   0.000000
                                        }
                                    }
                                }
                            }
                        }
                    }
                }
            }
            JOINT RightCollar
            {
                OFFSET  -3.911900  19.017000  -0.467062
                CHANNELS 3 Zrotation Xrotation Yrotation
                JOINT RightShoulder
                {
                    OFFSET -10.383700   0.000015   0.000000
                    CHANNELS 3 Zrotation Xrotation Yrotation
                    JOINT RightElbow
                    {
                        OFFSET -26.662100   0.001341   0.000385
                        CHANNELS 3 Zrotation Xrotation Yrotation
                        JOINT RightWrist
                        {
                            OFFSET -28.869000   0.000025  -0.000080
                            CHANNELS 3 Zrotation Xrotation Yrotation
                            JOINT RightFinger0
                            {
                                OFFSET  -2.044650  -2.323490   3.252850
                                CHANNELS 3 Zrotation Xrotation Yrotation
                                JOINT RightFinger01
                                {
                                    OFFSET  -3.088130   0.000000   0.000000
                                    CHANNELS 3 Zrotation Xrotation Yrotation
                                    JOINT RightFinger02
                                    {
                                        OFFSET  -2.639460   0.000000   0.000000
                                        CHANNELS 3 Zrotation Xrotation Yrotation
                                        End Site
                                        {
                                            OFFSET  -2.582190   0.000000   0.000000
                                        }
                                    }
                                }
                            }
                            JOINT RightFinger1
                            {
                                OFFSET  -8.364480   0.000000   3.252850
                                CHANNELS 3 Zrotation Xrotation Yrotation
                                JOINT RightFinger11
                                {
                                    OFFSET  -4.646930   0.000000   0.000000
                                    CHANNELS 3 Zrotation Xrotation Yrotation
                                    JOINT RightFinger12
                                    {
                                        OFFSET  -2.323470   0.000000   0.000000
                                        CHANNELS 3 Zrotation Xrotation Yrotation
                                        End Site
                                        {
                                            OFFSET  -2.273050   0.000000   0.000000
                                        }
                                    }
                                }
                            }
                            JOINT RightFinger2
                            {
                                OFFSET  -8.364480   0.000000   1.078090
                                CHANNELS 3 Zrotation Xrotation Yrotation
                                JOINT RightFinger21
                                {
                                    OFFSET  -5.111610   0.000000   0.000000
                                    CHANNELS 3 Zrotation Xrotation Yrotation
                                    JOINT RightFinger22
                                    {
                                        OFFSET  -2.788160   0.000000   0.000000
                                        CHANNELS 3 Zrotation Xrotation Yrotation
                                        End Site
                                        {
                                            OFFSET  -2.727660   0.000000   0.000000
                                        }
                                    }
                                }
                            }
                            JOINT RightFinger3
                            {
                                OFFSET  -7.899780   0.000000  -1.078090
                                CHANNELS 3 Zrotation Xrotation Yrotation
                                JOINT RightFinger31
                                {
                                    OFFSET  -4.646920   0.000000   0.000000
                                    CHANNELS 3 Zrotation Xrotation Yrotation
                                    JOINT RightFinger32
                                    {
                                        OFFSET  -2.323470   0.000000   0.000000
                                        CHANNELS 3 Zrotation Xrotation Yrotation
                                        End Site
                                        {
                                            OFFSET  -2.273050   0.000000   0.000000
                                        }
                                    }
                                }
                            }
                            JOINT RightFinger4
                            {
                                OFFSET  -7.435090   0.000000  -3.252850
                                CHANNELS 3 Zrotation Xrotation Yrotation
                                JOINT RightFinger41
                                {
                                    OFFSET  -3.717550   0.000000   0.000000
                                    CHANNELS 3 Zrotation Xrotation Yrotation
                                    JOINT RightFinger42
                                    {
                                        OFFSET  -1.858770   0.000000   0.000000
                                        CHANNELS 3 Zrotation Xrotation Yrotation
                                        End Site
                                        {
                                            OFFSET  -1.818440   0.000000   0.000000
                                        }
                                    }
                                }
                            }
                        }
                    }
                }
            }
        }
    }
    JOINT LeftHip
    {
        OFFSET   9.783010   0.000000   0.000000
        CHANNELS 3 Zrotation Xrotation Yrotation
        JOINT LeftKnee
        {
            OFFSET   0.000070 -41.789100   0.000028
            CHANNELS 3 Zrotation Xrotation Yrotation
            JOINT LeftAnkle
            {
                OFFSET   0.000087 -41.133200  -0.000100
                CHANNELS 3 Zrotation Xrotation Yrotation
                JOINT LeftToe
                {
                    OFFSET   0.000000  -6.358960  14.674500
                    CHANNELS 3 Zrotation Xrotation Yrotation
                    End Site
                    {
                        OFFSET   0.000000   0.000000   3.913200
                    }
                }
            }
        }
    }
    JOINT RightHip
    {
        OFFSET  -9.783020   0.000000   0.000000
        CHANNELS 3 Zrotation Xrotation Yrotation
        JOINT RightKnee
        {
            OFFSET   0.000044 -41.789100  -0.000870
            CHANNELS 3 Zrotation Xrotation Yrotation
            JOINT RightAnkle
            {
                OFFSET  -0.000090 -41.133200  -0.000245
                CHANNELS 3 Zrotation Xrotation Yrotation
                JOINT RightToe
                {
                    OFFSET   0.000000  -6.358960  14.674500
                    CHANNELS 3 Zrotation Xrotation Yrotation
                    End Site
                    {
                        OFFSET   0.000000   0.000000   3.913200
                    }
                }
            }
        }
    }
}
MOTION
Frames: 4
Frame Time:   0.016667
 -1.434890  89.480100  -0.069035   0.163101  -7.800720   3.422530   1.136680   6.156170  -0.647398   2.364360  12.297700  -1.430810  -1.608210  -0.990594  -0.028126  -2.644290  -2.003520   8.846560  -6.317650   2.074110   8.481750 -74.476800 -12.417700 -39.595200  -0.653161 -17.093000 -73.043100 -10.479100 -80.285900 -14.849500  37.466700  21.576200 -61.265000 -22.808600   0.001019   0.000572  -6.404310   0.000324  -0.003918  -9.341870   0.018563  -0.114009  -7.643310   0.007634  -0.003608  -5.350350   0.008806   0.000715 -14.901900  -3.117090  11.548600 -15.217300   0.003215  -0.003536 -10.134700   0.007410   0.000500  -6.506950  -1.374650  11.878300  -6.649990   0.003991  -0.002526  -4.428890  -0.000969   0.000592 -10.903200  -3.367830  16.958500 -17.107900   0.003587   0.000878 -11.393900   0.000453  -0.002848   6.561270   4.196810   8.244070  76.358800 -24.666600  35.557100  -7.556210 -19.197800  56.078700 -66.573800 -77.192100 -36.489700 -43.661400  33.218700  72.566400 -13.396200  -0.004080  -0.000924 -11.698100   0.000111   0.003303   5.622350   0.130759   1.322110   4.601180   0.004500   0.008371   3.220830   0.001739   0.003215   9.607000  -1.865390 -10.889800   9.784760   0.001248   0.005452   6.516650   0.006744   0.005746   8.963600  -2.186210 -13.598100   9.224350   0.006868   0.006211   6.143420   0.000405   0.005486   8.483830  -2.070320 -13.616100  13.096600   0.000589   0.005919   8.722350   0.003087   0.000577   1.846120   7.823710  -2.548790   2.016240   3.065990  11.778500  -3.885530  -3.345530  -0.385105   0.000000   0.000000   0.000000  -0.529314  10.095400  -3.863520  -0.021072   1.208580 -13.247200  -0.555255  -2.980290  -2.652000   0.000000   0.000000   0.000000
 -1.442040  89.481600  -0.081785   0.190160  -7.806780   3.501220   1.149040   6.159480  -0.631245   2.387570  12.304600  -1.399670  -1.673110  -0.989578  -0.028925  -2.751080  -1.999350   8.350220  -6.334420   2.063080   8.484540 -74.402000 -12.372600 -39.778400  -0.872411 -17.168900 -73.475600 -10.815500 -80.142200 -15.152100  37.660900  21.896400 -61.338600 -22.738700   0.001028   0.000478  -6.369360   0.000332  -0.003913  -9.349870   0.011079  -0.066301  -7.649820   0.007679  -0.003603  -5.354900   0.008803   0.000714 -14.910100  -3.118280  11.546500 -15.225600   0.003174  -0.003525 -10.140200   0.007521   0.000498  -6.515050  -1.376130  11.876400  -6.658230   0.004064  -0.002519  -4.434380  -0.000963   0.000591 -10.866300  -3.368220  16.972100 -17.051800   0.003544   0.000895 -11.356500   0.000454  -0.002849   6.570240   4.218090   8.232300  76.388700 -24.609200  35.426600  -7.399880 -19.230200  55.706700 -65.903500 -77.054900 -35.718800 -43.613200  33.160700  72.553600 -13.239100  -0.004073  -0.000835 -11.619500   0.000043   0.003261   5.776550   0.135087   1.320590   4.727260   0.004490   0.008355   3.309080   0.001718   0.003160   9.811490  -1.893500 -10.823000   9.992310   0.001219   0.005469   6.654850   0.006730   0.005781   9.209270  -2.239970 -13.555600   9.475590   0.006878   0.006221   6.310740   0.000389   0.005538   8.668180  -2.109630 -13.576300  13.379000   0.000583   0.005951   8.910460   0.003047   0.000613   1.835990   7.813480  -2.553650   2.016990   3.065080  11.745200  -3.892170  -3.323900  -0.423447   0.000000   0.000000   0.000000  -0.536411  10.105200  -3.863190  -0.021457   1.185630 -13.265000  -0.573996  -2.970690  -2.717180  -0.000000   0.000000   0.000000
 -1.447980  89.483200  -0.095641   0.217185  -7.813400   3.581930   1.161370   6.165760  -0.616412   2.410940  12.317300  -1.371250  -1.750100  -0.989132  -0.030210  -2.877860  -1.998470   7.708430  -6.347460   2.056080   8.487360 -74.370100 -12.314300 -39.913200  -1.032140 -17.218200 -73.847700 -11.074100 -79.971400 -15.346200  37.867100  22.243800 -61.401400 -22.695700   0.001036   0.000384  -6.347820   0.000338  -0.003909  -9.405680  -0.001804   0.011795  -7.695370   0.007723  -0.003597  -5.386780   0.008799   0.000713 -14.967600  -3.126590  11.532000 -15.283400   0.003135  -0.003519 -10.178800   0.007630   0.000498  -6.571750  -1.386490  11.863300  -6.715900   0.004137  -0.002510  -4.472800  -0.000957   0.000589 -10.854400  -3.371240  17.049600 -17.039100   0.003503   0.000912 -11.348000   0.000455  -0.002849   6.571850   4.235850   8.213480  76.390100 -24.550200  35.313800  -7.292970 -19.231300  55.373100 -65.224700 -76.934700 -34.971700 -43.428200  33.033700  72.442900 -13.060500  -0.004067  -0.000760 -11.530200   0.000000   0.003219   5.904510   0.135706   1.309940   4.831960   0.004481   0.008338   3.382370   0.001700   0.003104   9.976080  -1.923540 -10.804400  10.157800   0.001191   0.005490   6.765060   0.006716   0.005816   9.414910  -2.284910 -13.520100   9.685810   0.006888   0.006229   6.450750   0.000374   0.005592   8.822040  -2.142350 -13.543000  13.614700   0.000577   0.005984   9.067400   0.003008   0.000653   1.826030   7.800430  -2.558190   2.018090   3.065230  11.714500  -3.898860  -3.301310  -0.466329  -0.000000   0.000000   0.000000  -0.547133  10.117400  -3.863190  -0.019540   1.160850 -13.284100  -0.587010  -2.957170  -2.778430  -0.000000   0.000000  -0.000000
 -1.451800  89.484700  -0.111565   0.244039  -7.823450   3.659950   1.173430   6.176790  -0.600042   2.433670  12.339500  -1.339810  -1.847980  -0.993176  -0.032622  -3.039190  -2.007730   6.853440  -6.354700   2.058340   8.480980 -74.376300 -12.244100 -39.990400  -1.135300 -17.248700 -74.155300 -11.182300 -79.753200 -15.337600  38.056600  22.551600 -61.445200 -22.717200   0.001035   0.000434  -6.358630   0.000341  -0.003907  -9.638300  -0.025685   0.150063  -7.885670   0.007771  -0.003595  -5.519970   0.008802   0.000710 -15.198000  -3.160410  11.474400 -15.515700   0.003101  -0.003529 -10.333500   0.007737   0.000505  -6.748810  -1.417680  11.812700  -6.895610   0.004209  -0.002486  -4.592480  -0.000950   0.000574 -10.938100  -3.434480  17.242500 -17.189400   0.003468   0.000889 -11.448100   0.000451  -0.002839   6.560760   4.246840   8.177260  76.378500 -24.508200  35.236000  -7.240800 -19.162500  55.069900 -64.763000 -76.918900 -34.508200 -43.264800  32.798100  72.164500 -12.885000  -0.004082  -0.000845 -11.442500   0.000000   0.003185   5.950040   0.126883   1.214950   4.869190   0.004470   0.008323   3.408430   0.001683   0.003047  10.026200  -1.947870 -10.871200  10.210100   0.001166   0.005514   6.799940   0.006702   0.005853   9.493080  -2.301950 -13.506700   9.765710   0.006892   0.006244   6.503960   0.000362   0.005647   8.884550  -2.155730 -13.530300  13.710500   0.000567   0.006021   9.131170   0.002967   0.000686   1.816680   7.784870  -2.564670   2.019160   3.066390  11.693700  -3.906640  -3.276660  -0.514501   0.000000   0.000000   0.000000  -0.567211  10.169700  -3.863450  -0.011140   1.103530 -13.301100  -0.592043  -2.946190  -2.838100  -0.000000   0.000000   0.000000
